<svg width="1440" height="600"
    xmlns="http://www.w3.org/2000/svg" fill="none">
    <defs>
        <filter color-interpolation-filters="sRGB" filterUnits="userSpaceOnUse" height="557.628" width="337.763" y="20.9152" x="782.932" id="filter0_d_3934_68092">
            <feGaussianBlur stdDeviation="13.5424"/>
        </filter>
        <linearGradient y2="0.5" x2="1.00105" y1="0.5" x1="-0.00105" id="paint0_linear_3934_68092">
            <stop stop-color="#3288FF"/>
            <stop stop-color="#3DCEEE" offset="0.33854"/>
            <stop stop-color="#5837DB" offset="0.60417"/>
            <stop stop-color="#3288FF" offset="0.92188"/>
        </linearGradient>
        <linearGradient y2="0.5" x2="1.00194" y1="0.5" x1="-0.00194" id="paint1_linear_3934_68092">
            <stop stop-color="#3288FF"/>
            <stop stop-color="#3DCEEE" offset="0.33854"/>
            <stop stop-color="#5837DB" offset="0.60417"/>
            <stop stop-color="#3288FF" offset="0.92188"/>
        </linearGradient>
    </defs>
    <g>
        <title>Layer 1</title>
        <path id="svg_1" stroke="url(#paint0_linear_3934_68092)" d="m408.758,173.112l19.352,52.297c7.797,21.071 24.41,37.684 45.481,45.481l52.297,19.352c66.149,24.478 66.149,118.038 0,142.516l-52.297,19.352c-21.071,7.797 -37.684,24.41 -45.481,45.481l-19.352,52.297c-24.478,66.149 -118.038,66.149 -142.516,0l-19.352,-52.297c-7.797,-21.071 -24.41,-37.684 -45.481,-45.481l-52.297,-19.352c-66.1494,-24.478 -66.1494,-118.038 0,-142.516l52.297,-19.352c21.071,-7.797 37.684,-24.41 45.481,-45.481l19.352,-52.297c24.478,-66.149 118.038,-66.149 142.516,0z"/>
        <path id="svg_2" stroke="url(#paint1_linear_3934_68092)" d="m1292.63,64.3938l10.55,28.5057c4.27,11.5475 13.37,20.6515 24.92,24.9245l28.51,10.548c35.85,13.269 35.85,63.987 0,77.256l-28.51,10.548c-11.55,4.273 -20.65,13.377 -24.92,24.924l-10.55,28.506c-13.27,35.859 -63.99,35.859 -77.26,0l-10.55,-28.506c-4.27,-11.547 -13.37,-20.651 -24.92,-24.924l-28.51,-10.548c-35.85,-13.269 -35.85,-63.987 0,-77.256l28.51,-10.548c11.55,-4.273 20.65,-13.377 24.92,-24.9245l10.55,-28.5057c13.27,-35.8584 63.99,-35.8584 77.26,0z"/>
        <rect id="svg_4" stroke-width="1.59322" stroke="#3288FF" rx="7.96611" height="150.346" width="144.983" y="222.214" x="735.929"/>
        <g id="svg_5" filter="url(#filter0_d_3934_68092)">
            <rect id="svg_6" shape-rendering="crispEdges" rx="7.96611" height="503.458" width="283.593" y="48" x="812.406"/>
        </g>
    </g>
</svg>