<svg width="33" height="33" viewBox="0 0 33 33" fill="none" xmlns="http://www.w3.org/2000/svg">
<path d="M11.2332 4.16884C12.8927 -0.316048 19.2361 -0.316046 20.8956 4.16885L22.1991 7.69136C22.7208 9.10139 23.8326 10.2131 25.2426 10.7349L28.7651 12.0383C33.25 13.6979 33.25 20.0412 28.7651 21.7008L25.2426 23.0042C23.8326 23.526 22.7208 24.6377 22.1991 26.0478L20.8956 29.5703C19.2361 34.0552 12.8927 34.0552 11.2331 29.5703L9.9297 26.0478C9.40794 24.6377 8.29622 23.526 6.88618 23.0042L3.36367 21.7008C-1.12122 20.0412 -1.12122 13.6979 3.36367 12.0383L6.88618 10.7349C8.29622 10.2131 9.40794 9.10139 9.9297 7.69136L11.2332 4.16884Z" fill="white"/>
</svg>
